/* XPM */
static char *_f18340c3b7e442c8fb8fef884bdc105g9o7MfxFYVKYvx3F[] = {
/* columns rows colors chars-per-pixel */
"90 93 90 1 ",
"  c None",
". c black",
"X c #161616",
"o c gray11",
"O c gray12",
"+ c #350000",
"@ c #373700",
"# c #3B2F17",
"$ c gray13",
"% c #222222",
"& c #232323",
"* c #2A2A2A",
"= c #2D2D2D",
"- c #2F2F2F",
"; c gray22",
": c #393939",
"> c #3A3A3A",
", c gray23",
"< c #490000",
"1 c #630000",
"2 c #4B3B1B",
"3 c #563D19",
"4 c #573E1A",
"5 c #573F1F",
"6 c #4F4F00",
"7 c #5F5F00",
"8 c #5F421F",
"9 c #777700",
"0 c #6F4A25",
"q c #6F4B27",
"w c #704B26",
"e c #774F2B",
"r c #007373",
"t c #494949",
"y c gray29",
"u c #4B4B4B",
"i c #565656",
"p c gray34",
"a c #676767",
"s c #686868",
"d c gray45",
"f c #747474",
"g c gray46",
"h c gray50",
"j c #83532D",
"k c #83522F",
"l c #83532F",
"z c #84532D",
"x c #8B5B32",
"c c #8B5B33",
"v c #935F37",
"b c #9F633B",
"n c #A3673F",
"m c #A4673F",
"M c #A3683F",
"N c #A4683D",
"B c #A4683E",
"V c #AB6B43",
"C c #B77347",
"Z c #BF7B4B",
"A c #CB7F4F",
"S c #878700",
"D c #939300",
"F c #9F9F00",
"G c #C7C700",
"H c #EFEF00",
"J c #D38353",
"K c #DF8B57",
"L c #EB8F5B",
"P c #F3975F",
"I c #FF9F63",
"U c #FFA773",
"Y c #0000B3",
"T c #808080",
"R c gray56",
"E c #909090",
"W c #9B9B9B",
"Q c gray61",
"! c gray67",
"~ c #ACACAC",
"^ c #B7B7B7",
"/ c #FFB383",
"( c #FFBB93",
") c #FFC7A7",
"_ c #C3C3C3",
"` c LightGray",
"' c gray83",
"] c #DFDFDF",
"[ c gray88",
"{ c #EFEFEF",
/* pixels */
"                                                                                          ",
"                                                                                          ",
"                                  .;tt;oXXXXXXXXXo*;tt                                    ",
"                                 ..+o*;;;;;;;;;;;;;;*o+                                   ",
"                                 ...+<11111111111111<+.                                   ",
"                                 ......................                                   ",
"                                  ....................                                    ",
"                                   ...................                                    ",
"                                    7.pptttppppt;;*o.                                     ",
"                                    77.fffaffddd;;o..                                     ",
"                                    nD4.............                                      ",
"                                    J7I4..@77556768                                       ",
"                                    JL//ArY.2qq#5Vj                                       ",
"                                    mnI(((UJxxJcVLj                                       ",
"                                     BLU/UL~RaJcJC                                        ",
"                                     nJLLL_ttTd2Cx                                        ",
"                               __    VJAA_u..ug5vq                                        ",
"                              _T~{_ .eAVVRu..useew                                        ",
"                            !{{{{~hi.lAVVdauusawepps^`{`T                                 ",
"                           ~{]]_^~~~~~WRuadddgVa^]{{{{{{{]E                               ",
"                          !]`_]{{{{{]WddVZK!dVVbh^]]{{{{{{_R                              ",
"                          _]__]{`{]]~ddAI))(JJvvph^]]]]]'_~WQ                             ",
"                          _`^^]]_]]^WiAI)((PbbvctdR^_____!^_'g                            ",
"                          Q_!!_`W_]^diI(((PJkeVc,sV^!!!!!!~~^g                            ",
"                          RRWRW!R!`^ddIUUUIJVvVw:ah!WWWWRhhddp                            ",
"                          fhhhRRRR!`WdAIIIAJVvkqiaR^RWWWRhapp                             ",
"                           ahhhR!!^_]`WALLJJveq,dQ!RRWRQRappu                             ",
"                           aahhhhRRRRRRhaiidayuuiadhRRhai,,,                              ",
"                            TRRhhhhhhhhaaiiiyyaahRRQQQQQha,u                              ",
"                            h^^^Wh`__!!!~~Q^hy`^````'___Raup                              ",
"                            pW^`!h{{]d``]]R^_y_Q]{{]d^^'Rapp                              ",
"                             h^`^hRWahhpahQ_~a_Rhhahhahhaapp                              ",
"                             a!__!`_R_WRWWR_ha_R^WRW^RWWdapu                              ",
"                              h!^W`!R_!RW!R_Wa_R^WR!_R!Rdpu,                              ",
"                              aW^W`!R_!RW!R!!h!R^Wh!^h!Rdpt;                              ",
"                              pdWW^Wh^WhWWRWhhWR!RhWWhWRdpu                               ",
"                               dRW^^d^Rd^!RW!hWR!!d!Rd!Rfpu                               ",
"                               pR!Whdaaaaad!!hWhhdaaaaadfp                                ",
"                                dR!!RRRRRW!^_h!WRRRW!!hapt                                ",
"                                 dhR!!!!!!^__R___^!WWWhpu%                                ",
"                                 ...--;psTThdahhhhhsspp-&.                                ",
"                                 ..........GHHG...........                                ",
"                                 p.........FGGF..........;                                ",
"                                `{^hp......9SS9.......&tst                                ",
"                                ]{{{`!WWRRhhddhhhhhhhhaast                                ",
"                               ]{{{{{{]]]`{{_dR!^_]{{{]`'~                                ",
"                               ]_!!_````_!W`_a!^^_`]]]__``f                               ",
"                              `{{`_!!!`_^!!_WaRW_`]{{{]__`~                               ",
"                              ]{{{{{{{`_!!^_hpR_]]]{{{]___`!                              ",
"                             ]]{{{{{{]_^!!_~aph~_]{{{{]`____Q                             ",
"                             []{{{{{{`_^!!^Qp;tT!]{{{{]`___`^                             ",
"                             R]]{{{{]`_!!!^T,phpW]]]]]]]]]]_!W                            ",
"                              h_`]]]]`_!!!!h,sTRhWW!^^^WRRdahW                            ",
"                              !hRWW!!WWhhhhh,sdR!_]]]``^^!!Rpd                            ",
"                              ]_^!Rhdaspu,;,;pR!_`]]]]`^_^!Wha                            ",
"                              ]]`!RRhQTpuu,,ph!^_```]]`^__!WRp                            ",
"                              ]]_!RRRWhaaapufEW!^_`]]]]`!__WWp                            ",
"                              {]^WRRRWhhTstupaaTW^`]]]]`!_`_Wp                            ",
"                              {`^WRRWWWRdtu,;upE!_`]]]]`^_`_!a                            ",
"                              {`!WRRWWRassu   pQ^_`]]]]]`!``_R                            ",
"                             ~{^WWRRWhaaaat   pEW^``]]]]`!```!f                           ",
"                             {{!WRRWRaadfpu   pfR!_`]]]]`^_``_R                           ",
"                             {{!WRRWhdddspt    pRR_`]]]]]`!``_Wf                          ",
"                            {{]!WRRWhddapuu    tdh!_`]]]]`^_`_!W                          ",
"                           ]{{]!WWWRddaptuu    tufW_``]]]]_!`_^W                          ",
"                           {]{]!WWWhdaapppu     tdR^_`]]]]`!__^Wf                         ",
"                           {]]{_!WWdaaaasp;     ufR!_`]]]]`!^_^WW                         ",
"                           ``__^_!Rhaaaasu-     ufWW!_`]]]]^^_^W!                         ",
"                           _^WRdfTWWhddst-%     pR!_!!^``]]_^^!R^                         ",
"                           W^Rdapppaaapu,&      aR__^^!!__]]!Wd!_                         ",
"                           dEsapuuuutuu,&&      aR__^_!RRW!hhhaW_                         ",
"                           -,,,;,-----&&&.       h!WRhhhRW!aadaad                         ",
"                           .%------&&&&&&.       sQRhdhhhWRaadapt                         ",
"                           ..&&&&&&&&&....       thhaddhhWRaadap,                         ",
"                           .&.............       tpaaaddhWRpsapu-                         ",
"                           .&-&&&&.........      .-ppppfRWRppu,-.                         ",
"                           .&-&&...........      ...&,pTWWEa;,-..                         ",
"                           .%-&&...........      ..............%.                         ",
"                            .&--&..........      ...&&.&.....&&%.                         ",
"                            .&.............      ...&&&.%.....&%.                         ",
"                            .&.............      ....-&.&.....&%.                         ",
"                            .&&--&&.......        ....-&&.....&.                          ",
"                           ..&&....&......        ....&-&....&&.                          ",
"                           .&.......&.....        .....-&...&-&..                         ",
"                          .%&&&&&&&&&&...          ....,-&..-.&..                         ",
"                          ...............          ....&&...&&...                         ",
"                          ...............          ....,,-&..&&...                        ",
"                           ..............          ....,-.....&...                        ",
"                            .............          ....-&......&..                        ",
"                            .............          ...&,,&&&&&&&..                        ",
"                            .............           ..&,,,-&&&....                        ",
"                            .............         ....,u-&&%&&&&...                       ",
"                            .............        ......,........%..                       "
};
